<?xml version="1.0" standalone="no"?>
<!DOCTYPE svg PUBLIC "-//W3C//DTD SVG 20010904//EN"
 "http://www.w3.org/TR/2001/REC-SVG-20010904/DTD/svg10.dtd">
<svg version="1.0" xmlns="http://www.w3.org/2000/svg"
 width="683.000000pt" height="683.000000pt" viewBox="0 0 683.000000 683.000000"
 preserveAspectRatio="xMidYMid meet">
<metadata>
Created by potrace 1.16, written by Peter Selinger 2001-2019
</metadata>
<g transform="translate(0.000000,683.000000) scale(0.100000,-0.100000)"
fill="#000000" stroke="none">
<path d="M3185 6264 c-558 -84 -1055 -301 -1490 -650 -586 -471 -993 -1201
-1094 -1964 -31 -233 -22 -662 20 -891 111 -618 379 -1145 813 -1596 418 -435
931 -721 1539 -857 229 -52 309 -58 686 -54 306 4 359 7 461 27 655 126 1178
399 1626 847 694 694 993 1622 848 2628 -69 479 -303 1006 -630 1416 -91 114
-336 358 -454 451 -488 388 -1069 620 -1648 659 -260 17 -494 12 -677 -16z
m1203 -91 c47 -23 64 -56 57 -108 -3 -22 -31 -113 -61 -204 -30 -90 -52 -166
-49 -169 3 -3 72 13 153 36 81 23 192 51 246 62 122 25 323 45 358 37 31 -8
68 -63 68 -101 0 -17 -11 -38 -27 -55 -16 -15 -138 -93 -273 -173 -331 -198
-590 -372 -590 -397 0 -3 51 -1 113 7 245 29 498 -13 707 -118 96 -48 245
-146 335 -220 159 -131 306 -296 320 -359 8 -39 -16 -86 -55 -106 -38 -19 -44
-18 -356 98 -235 87 -369 131 -509 166 -145 36 -385 70 -385 54 0 -5 35 -33
78 -63 201 -139 307 -250 377 -395 71 -147 80 -206 80 -525 -1 -309 -6 -338
-64 -377 -19 -13 -42 -23 -53 -23 -31 0 -96 76 -222 261 -221 321 -334 467
-480 617 -117 120 -212 190 -232 170 -26 -26 -109 -508 -138 -803 -41 -408
-47 -1204 -12 -1485 50 -398 130 -703 260 -990 65 -144 129 -253 223 -378 88
-116 100 -147 79 -195 -11 -28 -23 -38 -63 -51 -102 -33 -496 -88 -598 -84
l-70 3 -22 45 c-51 102 -201 704 -277 1110 -90 481 -120 763 -120 1130 0 261
2 300 27 463 54 352 127 673 223 986 29 96 52 177 49 179 -7 7 -124 -68 -199
-128 -187 -149 -393 -410 -606 -768 -40 -67 -86 -134 -102 -147 -62 -52 -142
-19 -159 65 -12 63 -11 303 2 440 20 217 71 396 160 556 32 59 142 221 192
282 9 11 3 12 -29 7 -120 -21 -355 -88 -634 -182 -173 -58 -325 -105 -338
-105 -37 0 -70 22 -87 58 -26 56 2 103 162 266 202 205 358 327 545 428 194
103 279 125 545 140 98 5 195 10 216 10 20 0 37 4 37 9 0 5 -38 37 -85 71 -46
33 -95 75 -109 93 l-25 31 -85 -17 -84 -18 -184 65 c-290 101 -463 146 -635
161 -50 5 -81 13 -99 27 -61 49 -51 118 24 167 99 63 339 149 492 177 244 43
595 -11 807 -126 105 -57 172 -110 370 -299 96 -91 178 -167 182 -169 4 -1 42
30 85 70 l77 73 84 280 c102 341 130 423 152 448 16 17 27 19 106 14 54 -4
102 -13 125 -24z m-2512 -782 c-10 -16 -36 -13 -36 3 0 17 21 27 34 16 4 -5 5
-13 2 -19z m3028 -6 c3 -9 -1 -18 -10 -22 -19 -7 -39 11 -30 26 10 16 33 13
40 -4z m556 -90 c13 -16 6 -35 -15 -35 -18 0 -28 17 -21 35 7 19 20 19 36 0z
m-3159 -178 c-13 -13 -26 -3 -16 12 3 6 11 8 17 5 6 -4 6 -10 -1 -17z m2839
-27 c0 -5 -4 -10 -10 -10 -5 0 -10 5 -10 10 0 6 5 10 10 10 6 0 10 -4 10 -10z
m940 -296 c0 -14 -21 -19 -33 -7 -9 9 13 34 24 27 5 -3 9 -12 9 -20z m-4150
-55 c0 -5 -7 -9 -15 -9 -15 0 -20 12 -9 23 8 8 24 -1 24 -14z m3759 -4 c3 -12
-13 -9 -17 4 -2 7 0 11 6 7 5 -3 10 -8 11 -11z m-4524 -105 c3 -5 -1 -10 -10
-10 -9 0 -13 5 -10 10 3 6 8 10 10 10 2 0 7 -4 10 -10z m405 -203 c0 -8 -3
-17 -7 -20 -9 -9 -34 13 -27 24 8 14 34 11 34 -4z m3357 -13 c8 -21 -13 -42
-28 -27 -13 13 -5 43 11 43 6 0 13 -7 17 -16z m423 -214 c0 -5 -4 -10 -9 -10
-6 0 -13 5 -16 10 -3 6 1 10 9 10 9 0 16 -4 16 -10z m612 -42 c-16 -16 -37 4
-28 28 6 16 8 16 23 1 13 -13 15 -19 5 -29z m429 -71 c-13 -13 -26 -3 -16 12
3 6 11 8 17 5 6 -4 6 -10 -1 -17z m-5491 -63 c0 -9 -7 -14 -17 -12 -25 5 -28
28 -4 28 12 0 21 -6 21 -16z m1300 -158 c0 -8 -5 -18 -11 -22 -14 -8 -33 11
-25 25 10 16 36 13 36 -3z m3000 -66 c0 -5 -6 -10 -14 -10 -8 0 -18 5 -21 10
-3 6 3 10 14 10 12 0 21 -4 21 -10z m-1215 -19 c0 -8 -4 -16 -10 -18 -16 -5
-38 14 -30 26 9 16 40 9 40 -8z m-2620 -21 c3 -5 -1 -10 -9 -10 -9 0 -16 5
-16 10 0 6 4 10 9 10 6 0 13 -4 16 -10z m4210 -20 c0 -22 -29 -18 -33 3 -3 14
1 18 15 15 10 -2 18 -10 18 -18z m700 -100 c3 -5 -1 -10 -9 -10 -8 0 -18 5
-21 10 -3 6 1 10 9 10 8 0 18 -4 21 -10z m-3157 -73 c2 -11 -3 -17 -17 -17
-23 0 -35 15 -26 31 10 15 39 6 43 -14z m-1990 -89 c-7 -19 -38 -22 -38 -4 0
10 9 16 21 16 12 0 19 -5 17 -12z m672 2 c0 -5 -4 -10 -10 -10 -5 0 -10 5 -10
10 0 6 5 10 10 10 6 0 10 -4 10 -10z m2688 -32 c-3 -7 -8 -13 -13 -13 -5 0
-10 6 -12 13 -3 6 3 12 12 12 9 0 15 -6 13 -12z m1382 -7 c0 -6 -5 -13 -10
-16 -15 -9 -43 3 -35 15 8 13 45 13 45 1z m-1760 -171 c0 -5 -7 -10 -15 -10
-8 0 -15 5 -15 10 0 6 7 10 15 10 8 0 15 -4 15 -10z m-1110 -110 c0 -5 -7 -10
-15 -10 -8 0 -15 5 -15 10 0 6 7 10 15 10 8 0 15 -4 15 -10z m3407 -56 c8 -21
-13 -42 -28 -27 -13 13 -5 43 11 43 6 0 13 -7 17 -16z m-4147 -14 c0 -5 -4
-10 -10 -10 -5 0 -10 5 -10 10 0 6 5 10 10 10 6 0 10 -4 10 -10z m3187 -6 c-3
-3 -12 -4 -19 -1 -8 3 -5 6 6 6 11 1 17 -2 13 -5z m-4184 -81 c-7 -2 -19 -2
-25 0 -7 3 -2 5 12 5 14 0 19 -2 13 -5z m3727 -37 c-8 -8 -13 -7 -20 4 -12 20
-1 33 16 19 11 -9 12 -15 4 -23z m954 -77 c-3 -5 -10 -7 -15 -3 -5 3 -7 10 -3
15 3 5 10 7 15 3 5 -3 7 -10 3 -15z m-4094 -54 c0 -8 -6 -15 -14 -15 -17 0
-28 14 -19 24 12 12 33 6 33 -9z m2070 -5 c0 -5 -4 -10 -10 -10 -5 0 -10 5
-10 10 0 6 5 10 10 10 6 0 10 -4 10 -10z m649 -57 c0 -5 -3 -9 -9 -11 -5 -2
-10 4 -10 13 0 16 16 14 19 -2z m-3641 -110 c-2 -10 -10 -18 -18 -18 -8 0 -16
8 -18 18 -2 12 3 17 18 17 15 0 20 -5 18 -17z m1552 -48 c0 -8 -4 -15 -10 -15
-5 0 -10 7 -10 15 0 8 5 15 10 15 6 0 10 -7 10 -15z m-360 -65 c0 -5 -4 -10
-10 -10 -5 0 -10 5 -10 10 0 6 5 10 10 10 6 0 10 -4 10 -10z m-480 -15 c0 -8
-4 -15 -9 -15 -13 0 -22 16 -14 24 11 11 23 6 23 -9z m4280 -120 c0 -8 -4 -15
-10 -15 -5 0 -10 7 -10 15 0 8 5 15 10 15 6 0 10 -7 10 -15z m-1833 -31 c-9
-9 -28 6 -21 18 4 6 10 6 17 -1 6 -6 8 -13 4 -17z m-1662 -44 c0 -22 -29 -18
-33 3 -3 14 1 18 15 15 10 -2 18 -10 18 -18z m565 10 c0 -5 -7 -10 -15 -10 -8
0 -15 5 -15 10 0 6 7 10 15 10 8 0 15 -4 15 -10z m2438 -48 c3 -9 -2 -13 -14
-10 -9 1 -19 9 -22 16 -3 9 2 13 14 10 9 -1 19 -9 22 -16z m-559 -17 c3 -12
-13 -9 -17 4 -2 7 0 11 6 7 5 -3 10 -8 11 -11z m-3589 -90 c0 -8 -4 -15 -10
-15 -5 0 -10 7 -10 15 0 8 5 15 10 15 6 0 10 -7 10 -15z m384 -2 c9 -22 -10
-41 -25 -26 -13 13 -5 43 10 43 5 0 12 -8 15 -17z m4536 -108 c0 -19 -13 -25
-29 -15 -19 11 -6 41 14 34 8 -3 15 -12 15 -19z m-472 -73 c2 -7 -3 -12 -12
-12 -9 0 -16 7 -16 16 0 17 22 14 28 -4z m-2979 -59 c0 -5 -3 -9 -9 -11 -5 -2
-10 4 -10 13 0 16 16 14 19 -2z m1691 -24 c0 -11 -27 -12 -34 0 -3 4 -3 11 0
14 8 8 34 -3 34 -14z m-512 -11 c-6 -18 -28 -21 -28 -4 0 9 7 16 16 16 9 0 14
-5 12 -12z m-2728 -152 c0 -11 -19 -15 -25 -6 -3 5 1 10 9 10 9 0 16 -2 16 -4z
m4120 -31 c0 -8 -7 -15 -15 -15 -16 0 -20 12 -8 23 11 12 23 8 23 -8z m-3790
-66 c0 -5 -4 -9 -10 -9 -5 0 -10 7 -10 16 0 8 5 12 10 9 6 -3 10 -10 10 -16z
m280 -49 c0 -11 -7 -20 -15 -20 -8 0 -15 9 -15 20 0 11 7 20 15 20 8 0 15 -9
15 -20z m2190 -60 c0 -5 -4 -10 -10 -10 -5 0 -10 5 -10 10 0 6 5 10 10 10 6 0
10 -4 10 -10z m1800 6 c0 -11 -19 -15 -25 -6 -3 5 1 10 9 10 9 0 16 -2 16 -4z
m-3390 -67 c0 -5 -7 -9 -15 -9 -15 0 -20 12 -9 23 8 8 24 -1 24 -14z m426 10
c10 -17 -13 -36 -27 -22 -12 12 -4 33 11 33 5 0 12 -5 16 -11z m-1351 -78 c0
-8 -4 -16 -10 -18 -16 -5 -38 14 -30 26 9 16 40 9 40 -8z m3045 9 c0 -5 -4
-10 -10 -10 -5 0 -10 5 -10 10 0 6 5 10 10 10 6 0 10 -4 10 -10z m536 -77
c-10 -10 -19 5 -10 18 6 11 8 11 12 0 2 -7 1 -15 -2 -18z m-2888 -36 c2 -10
-3 -17 -12 -17 -18 0 -29 16 -21 31 9 14 29 6 33 -14z m1935 -142 c-2 -14 -31
-31 -39 -23 -12 13 6 40 23 36 10 -2 17 -8 16 -13z m1387 -25 c0 -5 -4 -10
-10 -10 -5 0 -10 5 -10 10 0 6 5 10 10 10 6 0 10 -4 10 -10z m-2551 -77 c0 -5
-3 -9 -9 -11 -5 -2 -10 4 -10 13 0 16 16 14 19 -2z m-1084 -23 c0 -22 -29 -18
-33 3 -3 14 1 18 15 15 10 -2 18 -10 18 -18z m425 10 c0 -5 -7 -10 -15 -10 -8
0 -15 5 -15 10 0 6 7 10 15 10 8 0 15 -4 15 -10z m2430 -64 c0 -11 -19 -15
-25 -6 -3 5 1 10 9 10 9 0 16 -2 16 -4z m453 -32 c-8 -20 -33 -17 -33 4 0 10
3 22 7 25 10 11 32 -13 26 -29z m-2415 -127 c2 -10 -3 -17 -12 -17 -18 0 -29
16 -21 31 9 14 29 6 33 -14z m-470 -74 c-2 -10 -8 -18 -13 -18 -5 0 -11 8 -13
18 -2 10 3 17 13 17 10 0 15 -7 13 -17z m1028 -64 c3 -6 1 -16 -4 -21 -13 -13
-45 8 -36 23 7 12 31 11 40 -2z m1162 -62 c2 -10 -3 -17 -12 -17 -18 0 -29 16
-21 31 9 14 29 6 33 -14z m-1448 -81 c0 -9 -30 -14 -35 -6 -4 6 3 10 14 10 12
0 21 -2 21 -4z"/>
<path d="M2374 5795 c-84 -18 -234 -70 -324 -112 l-75 -35 130 -23 c169 -29
216 -42 487 -131 l228 -75 156 35 c158 37 194 42 194 28 0 -4 -16 -29 -35 -56
-19 -27 -35 -54 -35 -60 0 -6 42 -40 92 -76 50 -36 144 -115 207 -177 l116
-112 -50 7 c-27 4 -201 7 -385 7 -320 0 -339 -1 -415 -23 -164 -48 -330 -142
-505 -287 -108 -89 -355 -333 -347 -341 3 -3 135 37 294 89 344 114 464 147
683 186 356 64 385 65 300 11 -169 -106 -411 -407 -479 -594 -73 -204 -118
-558 -93 -739 l7 -47 65 107 c90 150 253 393 324 483 158 200 252 285 466 427
149 98 180 127 180 169 0 42 17 57 87 84 50 19 62 20 88 10 17 -7 64 -13 106
-14 69 -1 85 -5 170 -48 175 -87 350 -264 650 -656 52 -68 100 -131 106 -140
7 -8 16 -13 19 -9 8 8 -22 222 -42 302 -51 199 -230 364 -570 526 -180 86
-194 97 -194 156 0 35 6 49 27 69 83 77 442 113 698 70 115 -19 281 -62 409
-106 49 -16 91 -28 93 -26 7 7 -140 94 -237 140 -124 59 -229 85 -370 93 -138
7 -243 -6 -441 -52 -80 -19 -156 -35 -168 -35 -12 0 -33 11 -46 25 -93 92 79
344 383 564 56 41 100 76 97 79 -2 2 -62 -23 -133 -57 -71 -33 -142 -64 -158
-67 -18 -3 -36 -17 -45 -33 -14 -24 -185 -175 -287 -253 -55 -43 -84 -37 -148
27 -66 66 -93 122 -94 191 l0 52 -109 105 c-236 226 -381 302 -643 341 -127
19 -349 20 -434 1z m1226 -788 c0 -23 -18 -57 -30 -57 -11 0 -14 93 -3 104 10
10 33 -23 33 -47z"/>
<path d="M3548 4020 c-31 -65 -136 -478 -177 -695 -68 -358 -86 -545 -78 -820
12 -421 96 -988 224 -1505 l38 -155 5 155 c6 180 -1 192 85 -145 65 -254 82
-314 94 -335 8 -12 27 -12 142 4 73 10 141 21 151 25 16 6 12 16 -33 91 -196
326 -342 753 -404 1185 -27 183 -38 539 -32 1025 7 507 13 615 58 944 16 121
27 221 25 223 -2 3 -21 -47 -42 -109 l-39 -113 -5 120 c-3 66 -8 113 -12 105z"/>
</g>
</svg>
